<svg width="646" height="254" viewBox="0 0 646 254" fill="none" xmlns="http://www.w3.org/2000/svg">
<path fill-rule="evenodd" clip-rule="evenodd" d="M57.0645 25.9245C53.9478 29.9319 51.1178 36.8911 48.2877 43.8504C47.294 46.8692 46.3844 49.9498 45.6087 53.027C42.4234 65.6566 41.4795 78.2348 42.7238 91.2609C43.968 104.287 47.4039 117.761 51.7305 130.282C56.057 142.804 61.2778 154.376 66.4968 165.947C69.8829 163.208 73.5384 160.764 77.4308 158.66C78.4245 148.471 79.286 138.642 79.8301 129.694C80.7483 114.553 80.7483 101.936 79.6018 88.1717C78.4537 74.4076 76.1608 59.4954 73.8662 47.9109C71.5716 36.3265 69.2771 28.068 66.4299 24.4657C63.5827 20.8634 60.1811 21.9171 57.0645 25.9245V25.9245Z" fill="#3FE0D0"/>
<path fill-rule="evenodd" clip-rule="evenodd" d="M161.371 25.3839C164.488 29.3912 167.318 36.3505 170.148 43.3098C171.141 46.3286 172.051 49.4092 172.827 52.4864C176.012 65.116 176.956 77.6942 175.712 90.7203C174.467 103.746 171.032 117.22 166.705 129.742C162.378 142.263 157.158 153.836 151.939 165.407C148.553 162.668 144.897 160.224 141.005 158.12C140.011 147.93 139.149 138.102 138.605 129.153C137.687 114.013 137.687 101.395 138.834 87.6311C139.982 73.867 142.275 58.9548 144.569 47.3703C146.864 35.7859 149.158 27.5274 152.006 23.9251C154.853 20.3227 158.254 21.3765 161.371 25.3839V25.3839Z" fill="#3FE0D0"/>
<path d="M293.032 178.699C284.123 178.699 276.033 176.55 268.765 172.251C261.497 167.953 255.713 162.091 251.416 154.666C247.116 147.242 244.968 138.84 244.968 129.462C244.968 119.614 247.116 110.978 251.416 103.554C255.713 96.1297 261.576 90.3856 269 86.3216C276.424 82.2576 284.748 80.2256 293.971 80.2256C300.379 80.2256 306.319 81.0459 311.79 82.6884C317.262 84.3291 322.419 86.948 327.266 90.5435C329.141 92.107 330.08 94.2162 330.08 96.8746C330.08 98.9066 329.416 100.666 328.088 102.15C326.759 103.635 325 104.378 322.812 104.378C321.405 104.378 319.843 103.83 318.123 102.737C314.372 99.9243 310.464 97.8906 306.4 96.6412C302.336 95.3901 298.272 94.7654 294.208 94.7654C284.672 94.7654 276.819 97.9301 270.644 104.261C264.469 110.592 261.383 118.993 261.383 129.466C261.383 139.626 264.315 147.949 270.176 154.437C276.036 160.924 283.658 164.167 293.036 164.167C298.663 164.167 303.625 163.151 307.924 161.119C312.221 159.087 315.66 156.469 318.24 153.264C320.819 150.06 322.264 146.895 322.577 143.769C322.577 141.268 321.327 140.017 318.825 140.017H302.178C297.019 140.017 294.441 137.595 294.441 132.749C294.441 130.561 295.145 128.841 296.552 127.59C297.959 126.339 299.835 125.714 302.18 125.714H328.908C332.347 125.714 334.848 126.457 336.411 127.942C337.975 129.426 338.756 132.278 338.756 136.499C338.756 144.158 336.84 151.191 333.011 157.601C329.183 164.01 323.828 169.129 316.951 172.958C310.074 176.787 302.102 178.702 293.036 178.702L293.032 178.699ZM372.984 178.699C366.888 178.699 363.059 175.807 361.495 170.023L347.194 117.504C347.038 117.035 346.959 116.566 346.959 116.096C346.959 115.628 346.959 115.236 346.959 114.924C346.959 112.736 347.702 110.9 349.187 109.413C350.671 107.929 352.587 107.186 354.931 107.186C356.651 107.186 358.252 107.615 359.738 108.475C361.223 109.334 362.122 110.623 362.434 112.343L371.11 153.139C371.422 154.859 372.126 155.719 373.221 155.719C374.316 155.719 375.096 154.859 375.567 153.139L387.759 117.032C388.54 114.843 389.87 113.24 391.744 112.224C393.62 111.208 395.573 110.7 397.605 110.7C399.637 110.7 401.552 111.208 403.349 112.224C405.147 113.24 406.359 114.843 406.984 117.032L419.176 153.139C419.644 154.859 420.427 155.719 421.52 155.719C422.615 155.719 423.319 154.859 423.631 153.139L432.307 112.343C432.619 110.623 433.518 109.334 435.003 108.475C436.487 107.615 438.09 107.186 439.81 107.186C442.154 107.186 444.07 107.929 445.554 109.413C447.039 110.898 447.782 112.734 447.782 114.924C447.782 115.236 447.782 115.628 447.782 116.096C447.782 116.565 447.703 117.033 447.547 117.504L433.245 170.023C431.682 175.807 427.851 178.699 421.757 178.699C419.1 178.699 416.716 177.878 414.605 176.236C412.495 174.595 411.05 172.524 410.267 170.023L399.482 135.792C398.858 133.76 398.154 132.744 397.371 132.744C396.434 132.744 395.652 133.76 395.027 135.792L384.476 170.023C383.693 172.524 382.248 174.595 380.137 176.236C378.026 177.878 375.642 178.699 372.986 178.699H372.984ZM489.747 178.699C483.024 178.699 477.007 177.135 471.692 174.01C466.379 170.883 462.236 166.546 459.265 160.998C456.296 155.449 454.81 149.235 454.81 142.358C454.81 135.637 456.294 129.62 459.265 124.305C462.236 118.991 466.377 114.809 471.692 111.761C477.007 108.713 483.024 107.189 489.747 107.189C494.123 107.189 498.031 107.932 501.47 109.417C504.909 110.901 507.878 112.817 510.379 115.161C510.691 112.973 511.63 111.293 513.192 110.12C514.755 108.948 516.475 108.363 518.351 108.363C520.383 108.363 522.219 109.027 523.862 110.355C525.502 111.684 526.323 113.676 526.323 116.335V171.434C526.323 173.778 525.502 175.575 523.862 176.826C522.221 178.077 520.385 178.702 518.351 178.702C516.319 178.702 514.482 178.077 512.842 176.826C511.201 175.575 510.379 173.778 510.379 171.434V170.497C507.878 172.997 504.908 174.992 501.47 176.476C498.031 177.961 494.123 178.704 489.747 178.704V178.699ZM491.154 164.162C497.094 164.162 501.782 162.17 505.222 158.183C508.661 154.198 510.381 148.922 510.381 142.356C510.381 136.104 508.661 131.103 505.222 127.351C501.782 123.599 497.094 121.724 491.154 121.724C485.058 121.724 480.134 123.599 476.382 127.351C472.631 131.103 470.755 136.104 470.755 142.356C470.755 148.922 472.631 154.196 476.382 158.183C480.134 162.168 485.058 164.162 491.154 164.162ZM551.879 178.699C549.847 178.699 548.01 178.074 546.37 176.823C544.729 175.572 543.907 173.775 543.907 171.431V82.3348C543.907 79.6781 544.727 77.6856 546.37 76.3572C548.01 75.0289 549.847 74.3647 551.879 74.3647C553.911 74.3647 555.747 75.0289 557.39 76.3572C559.03 77.6856 559.851 79.6781 559.851 82.3348V171.431C559.851 173.775 559.03 175.572 557.39 176.823C555.749 178.074 553.913 178.699 551.879 178.699ZM609.322 178.699C602.6 178.699 596.583 177.135 591.268 174.01C585.954 170.883 581.811 166.546 578.841 160.998C575.872 155.449 574.385 149.235 574.385 142.358C574.385 135.637 575.87 129.62 578.841 124.305C581.811 118.991 585.953 114.809 591.268 111.761C596.583 108.713 602.6 107.189 609.322 107.189C613.699 107.189 617.607 107.932 621.046 109.417C624.485 110.901 627.454 112.817 629.955 115.161C630.267 112.973 631.206 111.293 632.768 110.12C634.331 108.948 636.051 108.363 637.926 108.363C639.958 108.363 641.795 109.027 643.437 110.355C645.078 111.684 645.898 113.676 645.898 116.335V171.434C645.898 173.778 645.078 175.575 643.437 176.826C641.797 178.077 639.96 178.702 637.926 178.702C635.894 178.702 634.058 178.077 632.417 176.826C630.777 175.575 629.955 173.778 629.955 171.434V170.497C627.454 172.997 624.483 174.992 621.046 176.476C617.607 177.961 613.699 178.704 609.322 178.704V178.699ZM610.73 164.162C616.669 164.162 621.358 162.17 624.797 158.183C628.237 154.198 629.956 148.922 629.956 142.356C629.956 136.104 628.237 131.103 624.797 127.351C621.358 123.599 616.669 121.724 610.73 121.724C604.634 121.724 599.71 123.599 595.958 127.351C592.206 131.103 590.331 136.104 590.331 142.356C590.331 148.922 592.206 154.196 595.958 158.183C599.71 162.168 604.634 164.162 610.73 164.162Z" fill="#283B4A"/>
<path fill-rule="evenodd" clip-rule="evenodd" d="M181.579 204.222C204.685 209.33 219.295 216.854 219.295 225.246C219.295 240.632 170.204 253.105 109.647 253.105C49.0907 253.105 0 240.632 0 225.246C0 216.912 14.4094 209.434 37.2385 204.329C39.0182 196.741 42.1966 189.319 46.3396 182.498C50.3624 175.877 55.2931 169.819 60.7266 164.729C55.9744 154.17 51.2806 143.518 47.2423 131.827C44.8997 125.046 42.8179 118.037 41.2012 111.028C39.7253 104.634 38.608 98.1446 37.9936 91.7071C37.3414 84.8851 37.2608 78.2176 37.7551 71.641C38.2545 65.0181 39.3306 58.4502 40.9901 51.8719C42.4747 45.9853 44.4483 40.0472 46.5833 34.5124C49.1353 27.893 51.9001 21.9051 54.3165 17.3091C56.5922 12.9791 58.6311 9.76111 60.5207 7.36699C62.6453 4.67425 64.6413 2.97007 66.6012 1.90602C69.0966 0.551925 71.5148 0.158912 74.1492 0.790479C76.3682 1.32251 78.5066 2.58218 80.8149 4.61933C82.7937 6.36644 85.0283 8.79145 87.3606 12.3389C89.5934 15.7335 91.9275 20.1768 94.2152 26.0669C96.4171 31.7355 98.6121 38.8459 100.61 46.6152C102.631 54.4772 104.439 62.9347 105.837 71.1794C107.174 79.062 108.166 86.9257 108.846 94.4942L108.913 95.2596L108.988 94.3037C109.592 86.9051 110.526 79.0465 111.829 70.9631C113.179 62.5897 114.911 54.1202 116.838 46.3594C118.767 38.5987 120.904 31.4713 123.068 25.7597C125.318 19.825 127.609 15.3697 129.799 11.9785C132.089 8.43622 134.318 5.98029 136.309 4.19543C138.603 2.13597 140.73 0.859121 142.933 0.311648C145.551 -0.338798 147.972 0.0353273 150.488 1.37398C152.472 2.42945 154.487 4.11821 156.62 6.77834C158.493 9.1124 160.552 12.3166 162.9 16.6929C165.4 21.3576 168.229 27.3335 170.788 33.8122C172.924 39.2217 174.932 45.1272 176.499 51.1305C178.224 57.7414 179.358 64.3008 179.908 70.8739C180.46 77.4933 180.438 84.1643 179.846 90.9416C179.295 97.2607 178.221 103.769 176.772 110.289C175.193 117.399 173.178 124.413 170.916 131.134C168.768 137.518 166.392 143.66 163.906 149.677C161.745 154.902 159.682 159.637 157.635 164.284C161.422 167.6 164.86 171.276 167.901 175.249C174.395 183.732 179.103 193.587 181.577 204.227L181.579 204.222ZM31.4136 65.9483C31.4686 65.0113 32.246 64.2682 33.1985 64.2682C34.1853 64.2682 34.9868 65.0696 34.9868 66.0565L34.9731 66.2607C34.1836 73.1307 33.3924 80.0024 34.1184 88.2506C34.4805 92.3849 35.2271 96.8917 36.1624 101.582C37.1235 106.403 38.2511 111.277 39.3769 116.148C39.5966 117.107 38.9959 118.065 38.0365 118.284C37.0771 118.504 36.1195 117.903 35.8998 116.944C34.7465 111.953 33.5898 106.961 32.6579 102.281C31.6985 97.4718 30.9314 92.8363 30.5572 88.5578C29.8073 80.0179 30.6087 72.9797 31.4171 65.9501L31.4136 65.9483ZM165.74 166.678C165.301 166.191 165.34 165.437 165.829 164.998C166.317 164.559 167.07 164.598 167.51 165.087L167.522 165.101C170.338 168.216 173.159 171.331 175.947 175.386C177.376 177.466 178.778 179.763 180.036 182.09C181.26 184.352 182.365 186.679 183.253 188.903C185.053 193.419 185.895 197.392 186.738 201.363L186.745 201.408C186.86 202.053 186.431 202.671 185.786 202.786C185.151 202.899 184.541 202.484 184.413 201.856C183.585 197.968 182.76 194.078 181.047 189.779C180.204 187.668 179.137 185.425 177.942 183.216C176.703 180.923 175.349 178.699 173.992 176.725C171.306 172.815 168.531 169.752 165.759 166.692L165.742 166.678H165.74ZM113.892 217.017C114.626 215.927 116.107 215.638 117.197 216.375C118.287 217.109 118.575 218.59 117.839 219.68C116.941 221.007 115.663 222.073 114.163 222.804C113.409 223.171 112.599 223.451 111.753 223.636C111.844 225.17 112.616 226.569 113.816 227.614C115.186 228.809 117.101 229.547 119.232 229.547C120.659 229.547 122.016 229.214 123.178 228.615C124.304 228.033 125.248 227.204 125.883 226.192C126.581 225.081 128.05 224.748 129.161 225.447C130.271 226.145 130.604 227.614 129.906 228.725C128.811 230.468 127.225 231.877 125.356 232.844C123.521 233.791 121.414 234.316 119.232 234.316C115.912 234.316 112.889 233.128 110.687 231.21C110.233 230.815 109.814 230.388 109.433 229.935C109.014 230.453 108.549 230.935 108.038 231.381C105.836 233.3 102.813 234.488 99.4925 234.488C97.3112 234.488 95.202 233.963 93.3673 233.015C91.4984 232.051 89.9126 230.642 88.8194 228.896C88.1209 227.786 88.4538 226.317 89.5642 225.618C90.6746 224.92 92.1437 225.253 92.8422 226.363C93.4772 227.376 94.4211 228.206 95.547 228.786C96.7071 229.385 98.0664 229.718 99.4925 229.718C101.624 229.718 103.539 228.979 104.909 227.786C106.153 226.703 106.936 225.237 106.979 223.636C106.11 223.446 105.28 223.156 104.507 222.775C103.009 222.037 101.729 220.945 100.836 219.586C100.117 218.491 100.421 217.018 101.516 216.299C102.611 215.58 104.083 215.884 104.803 216.979C105.216 217.609 105.848 218.132 106.611 218.51C107.415 218.906 108.362 219.126 109.364 219.126C110.353 219.126 111.293 218.91 112.095 218.52C112.841 218.158 113.468 217.643 113.89 217.017H113.892ZM43.549 230.461C52.645 236.14 79.2772 239.847 109.649 239.847C140.716 239.847 167.558 236.243 175.923 230.437C174.579 229.512 173.745 227.921 173.868 226.178C174.091 223.063 174.093 219.941 173.879 216.84C173.666 213.746 173.233 210.663 172.584 207.615C170.504 197.829 166.276 188.769 160.343 181.019C154.403 173.26 146.767 166.812 137.879 162.257C135.545 161.065 134.62 158.205 135.813 155.87C137.006 153.536 139.865 152.61 142.201 153.803C144.856 155.164 147.413 156.671 149.862 158.312C151.712 154.098 153.509 149.955 155.119 146.063C157.53 140.231 159.83 134.285 161.904 128.115C164.081 121.646 166.008 114.95 167.499 108.238C168.828 102.262 169.821 96.1795 170.35 90.1196C170.896 83.864 170.918 77.7267 170.412 71.6531C169.9 65.5296 168.865 59.5022 167.302 53.5109C165.884 48.074 163.985 42.5237 161.925 37.3115C159.437 31.0096 156.795 25.4045 154.521 21.1602C152.494 17.3794 150.756 14.6609 149.21 12.7353C147.926 11.1358 146.898 10.2177 146.021 9.75084C145.672 9.56549 145.408 9.49513 145.207 9.5449C144.591 9.69765 143.757 10.2691 142.643 11.2697C141.224 12.5431 139.588 14.364 137.81 17.1151C135.933 20.0207 133.949 23.889 131.972 29.1081C129.937 34.4764 127.913 41.2314 126.077 48.6283C124.191 56.2226 122.51 64.4226 121.215 72.4494C119.984 80.0882 119.085 87.7117 118.486 95.0468C117.842 102.935 117.559 110.273 117.592 116.772C117.623 122.968 117.95 128.7 118.426 134.192C118.901 139.694 119.514 144.743 120.127 149.786L120.116 149.787C120.144 150.024 120.154 150.266 120.145 150.512C120.053 153.134 117.851 155.185 115.229 155.092C113.19 155.017 110.693 154.96 108.322 155.003C106.653 155.032 104.971 155.121 103.469 155.298L103.467 155.288C103.134 155.327 102.791 155.332 102.444 155.298C100.587 155.116 99.0858 153.886 98.4645 152.25L98.4027 152.078C98.1865 151.44 98.1024 150.747 98.1813 150.033C99.3312 139.856 100.483 129.677 100.442 117.013C100.421 110.409 100.083 103.072 99.3861 95.3111C98.7443 88.1596 97.778 80.5602 96.4514 72.7411C95.0715 64.6063 93.3279 56.4199 91.4109 48.9595C89.5196 41.6055 87.4413 34.8677 85.3526 29.4925C83.3223 24.2632 81.3126 20.4171 79.4282 17.551C77.6417 14.836 75.9769 13.0168 74.5199 11.7314C73.3923 10.736 72.5582 10.1713 71.9507 10.0254C71.7602 9.98079 71.4959 10.0546 71.1441 10.2468C70.2533 10.7291 69.227 11.6541 67.9691 13.2502C66.4759 15.1432 64.7632 17.8788 62.7329 21.7403C60.4452 26.0943 57.8365 31.7356 55.4458 37.938C53.4722 43.0575 51.6324 48.6042 50.2268 54.1802C48.7011 60.2299 47.7108 66.2676 47.2526 72.3481C46.7909 78.4733 46.8596 84.6088 47.4534 90.8129C48.0197 96.7424 49.0735 102.826 50.4756 108.904C52.0426 115.691 54.0162 122.364 56.2181 128.734C59.7587 138.984 64.008 148.78 68.3655 158.502L69.5446 157.718L69.8809 157.521C71.8048 156.295 73.7613 155.211 76.0971 153.99C78.4208 152.777 81.2903 153.678 82.5037 156.002C83.7171 158.325 82.816 161.195 80.4923 162.408C78.3367 163.536 76.581 164.502 74.9987 165.506L74.6846 165.726C73.0353 166.792 71.4633 167.964 69.6698 169.488L69.5085 169.625C63.766 174.537 58.5659 180.652 54.459 187.414C50.5374 193.87 47.6061 200.912 46.1508 208.049C45.533 211.077 45.1279 214.164 44.9374 217.286C44.7504 220.363 44.7812 223.485 45.0301 226.624C45.1468 228.119 44.5599 229.507 43.549 230.461V230.461ZM109.103 136.921C108.854 139.859 108.566 142.701 108.264 145.504L110.022 145.488C109.692 142.668 109.378 139.825 109.105 136.921H109.103Z" fill="#283B4A"/>
<path fill-rule="evenodd" clip-rule="evenodd" d="M81.1941 190.429C85.2272 190.429 88.4966 194.704 88.4966 199.978C88.4966 205.252 85.2272 209.527 81.1941 209.527C77.161 209.527 73.8916 205.252 73.8916 199.978C73.8916 194.704 77.161 190.429 81.1941 190.429ZM138.1 190.429C142.134 190.429 145.403 194.704 145.403 199.978C145.403 205.252 142.134 209.527 138.1 209.527C134.067 209.527 130.798 205.252 130.798 199.978C130.798 194.704 134.067 190.429 138.1 190.429Z" fill="#0D3B5C"/>
<path fill-rule="evenodd" clip-rule="evenodd" d="M140.299 191.912C141.656 191.912 142.757 193.012 142.757 194.369C142.757 195.727 141.656 196.827 140.299 196.827C138.941 196.827 137.841 195.727 137.841 194.369C137.841 193.012 138.941 191.912 140.299 191.912ZM84.0963 191.912C85.4538 191.912 86.5539 193.012 86.5539 194.369C86.5539 195.727 85.4538 196.827 84.0963 196.827C82.7388 196.827 81.6387 195.727 81.6387 194.369C81.6387 193.012 82.7388 191.912 84.0963 191.912Z" fill="white"/>
</svg>
