<svg width="181" height="171" viewBox="0 0 181 171" fill="none" xmlns="http://www.w3.org/2000/svg">
<path fill-rule="evenodd" clip-rule="evenodd" d="M94.9277 11.7869C94.1097 13.8538 93.2922 15.921 92.4741 17.9879C91.9498 19.3125 91.4259 20.6368 90.9018 21.9613C90.7157 22.4309 90.6089 22.9139 90.2586 23.2365C89.4328 23.996 87.9645 24.4647 86.978 24.9926C86.3172 25.3464 85.6561 25.7002 84.9953 26.054C84.6545 26.2366 83.9018 26.4607 83.6601 26.7688C83.3943 27.1082 83.5076 27.7409 83.5002 28.2158L83.4363 32.3163L83.3159 40.0426C86.7069 39.6722 90.0981 39.302 93.4891 38.9316C88.8989 44.0642 84.3089 49.1966 79.7187 54.3293C78.5874 55.5941 77.219 56.8072 76.3678 58.2861C74.5561 61.4342 72.7838 64.6057 70.9923 67.7652C69.3245 70.706 67.6568 73.6471 65.9891 76.5879L80.5865 76.1943C84.3659 76.0925 88.242 76.3946 91.8977 75.3809C94.9113 74.5453 97.9246 73.71 100.938 72.8744C101.339 72.7631 102.584 72.6497 102.872 72.333C103.141 72.0363 103.153 70.8998 103.234 70.5161C104.763 63.2607 106.691 55.269 110.921 49.069C113.954 44.6245 118.013 40.7551 121.735 36.8962C123.188 35.3901 124.666 33.9027 126.069 32.3494C126.428 31.9515 126.945 31.5018 127.186 31.0156C127.342 30.7014 127.562 30.1015 127.473 29.8191C127.434 29.6966 126.499 29.2448 126.365 29.1559C125.42 28.5275 124.484 27.8863 123.545 27.2481C120.907 25.4546 118.273 23.6568 115.619 21.8864C113.551 20.506 111.49 19.0444 109.304 17.8518C107.039 16.6156 104.536 15.7313 102.156 14.7454C99.7507 13.749 97.3408 12.7634 94.9277 11.7869Z" fill="#FFEAE9" fill-opacity="0.64"/>
<path fill-rule="evenodd" clip-rule="evenodd" d="M175.337 124.142C174.157 125.219 172.018 126.656 170.356 125.961C169.521 125.613 168.815 124.864 168.057 124.377C167.167 123.805 166.33 123.233 165.579 122.477C164.082 120.968 162.964 118.78 161.186 117.589C160.589 117.189 159.412 117.086 159.002 116.456C158.819 116.173 158.808 115.748 158.848 115.425C158.934 114.729 159.31 114.776 158.689 114.254L159.666 114.27C159.69 113.892 159.314 113.855 159.033 113.9C159.172 113.303 159.342 110.964 158.235 112.008C157.275 112.913 157.724 114.447 157.04 115.432C156.515 116.187 155.165 115.548 154.994 114.706C154.918 114.328 155.342 113.746 155.397 113.377C155.519 112.559 155.164 111.845 154.642 111.216C153.464 111.974 154.1 113.593 153.419 114.603C152.803 115.518 151.471 115.066 150.558 114.889C149.463 114.677 148.219 114.855 147.173 114.579C145.593 114.163 146.215 112.311 146.077 111.107C145.928 109.817 144.655 108.01 145.066 106.718C145.508 105.33 147.967 105.067 149.146 104.747C151.839 104.015 155.666 103.926 157.693 101.792C159.251 103.585 160.495 105.629 162.131 107.357C163.898 109.224 165.79 110.951 167.485 112.891C169.249 114.909 171.071 116.89 172.768 118.966C173.509 119.871 174.156 120.844 174.923 121.728C175.605 122.514 176.326 123.239 175.337 124.142ZM96.177 88.512C97.0078 88.0867 97.1083 88.363 97.094 89.2654C96.8637 88.8284 96.6302 88.7087 96.177 88.512ZM88.918 105.945L88.9428 104.354C89.7374 104.346 89.2278 105.699 88.918 105.945ZM88.6869 108.311C88.6979 107.606 88.6893 106.935 88.9031 106.253C88.9981 107.002 89.1916 107.651 88.6869 108.311ZM91.3481 156.751C92.0766 156.83 93.2086 156.345 93.8132 156.927C94.4343 157.525 94.3572 159.236 94.494 160.033C94.7203 161.35 94.9183 162.671 95.1057 163.994C95.2285 164.861 95.3833 165.742 94.4002 166.058C92.9472 166.524 90.8928 165.794 89.3873 165.707C86.4133 165.536 83.4413 165.315 80.4637 165.208C77.5777 165.105 74.6835 165.106 71.8051 165.362C70.5049 165.477 69.2317 165.697 67.9434 165.894C67.2644 165.997 65.4423 166.448 64.8394 165.867C63.7053 164.775 65.6578 162.295 66.4918 161.599C68.0396 160.308 70.2264 159.394 72.1506 158.852C73.1788 158.563 74.8984 157.732 75.6897 158.703C76.2968 159.448 76.2569 160.43 77.1346 161.001C79.1683 162.324 78.0243 158.602 76.748 158.126C77.6412 156.122 79.2395 158.996 79.9101 159.69C80.1487 159.938 80.9246 160.753 81.2733 160.354C81.5344 160.056 81.0393 158.966 80.949 158.67C80.8117 158.22 80.4576 157.534 80.57 157.051C80.7735 156.176 82.0084 155.956 82.7469 155.895C83.8922 155.799 85.0082 156.179 86.137 156.318C87.8678 156.531 89.6149 156.561 91.3481 156.751ZM81.1548 73.8943C78.8947 74.0388 76.6285 73.6582 74.372 73.9056C72.2371 74.14 70.2171 74.891 68.1973 75.5783C71.2926 68.6212 75.2553 62.3058 80.0573 56.4066C82.4486 53.4685 85.0168 50.5536 87.5944 47.7778C88.7939 46.4864 90.0331 45.239 91.2703 43.9849C92.3739 42.8662 93.182 40.9497 94.4984 40.1219C95.622 39.4153 97.5579 39.9619 98.7898 40.026C100.182 40.0985 101.876 40.2516 103.242 39.809C104.232 39.4883 104.517 38.5957 103.285 38.5468C101.831 38.4888 100.399 38.6181 98.9285 38.4588C95.118 38.0468 91.4487 37.41 87.5967 37.6787C86.7142 37.7401 85.5483 38.0975 84.6852 37.9713C84.0646 37.8801 84.4687 38.1992 84.0441 37.6935C83.8816 37.5 83.6891 37.0481 83.6441 36.7938C83.3908 35.3652 84.2046 33.3421 84.414 31.9111C84.6078 30.5867 84.4773 29.1258 84.8213 27.8385C85.1346 26.6671 86.0361 26.5243 87.1453 26.4159C90.1797 26.1191 93.2738 25.9843 96.3206 25.7725C103.274 25.2893 110.452 24.5087 117.326 26.0777C119.808 26.6443 122.832 27.5077 125.037 28.8491C125.726 29.2684 126.42 29.7603 126.154 30.6027C125.878 31.4771 124.576 32.3851 123.93 32.9539C119.152 37.1571 114.534 41.4484 111.14 46.8843C106.81 53.8161 104.271 61.3358 102.725 69.3322C102.392 71.0525 102.094 71.951 100.312 72.4198C98.3983 72.9234 96.5538 73.2413 94.5757 73.3727C90.104 73.6699 85.6241 73.6077 81.1548 73.8943ZM83.3895 27.5773C83.0077 30.1192 82.5048 32.6537 82.4191 35.2203C82.3868 36.1897 82.2873 36.6741 81.2528 36.8743C80.0332 37.1102 78.7944 37.2808 77.569 37.5263C71.6553 38.7118 65.8484 40.1904 60.0547 41.8662C54.424 43.4953 48.8821 45.3404 43.1324 46.5226C40.6592 47.0312 37.7693 47.3548 35.5055 48.5309C33.0702 49.7965 33.3547 51.938 33.1014 54.2813C32.7629 57.4122 31.7858 60.4336 31.41 63.5626C31.2303 65.0578 31.0644 66.5621 31.0645 68.0695C31.0646 69.3545 31.2265 70.7779 30.3461 71.8455C28.6497 69.5025 27.8739 66.5767 27.5768 63.7327C27.4323 62.3502 27.5197 60.9602 27.4938 59.5733C27.4729 58.4566 27.5254 56.6816 26.8129 55.7382C25.2641 53.6879 23.0823 61.7736 22.8733 62.6374C22.5219 64.0914 22.2279 65.5584 21.8777 67.0126C21.7224 67.6571 21.4994 70.0055 20.6292 70.2263C18.8257 70.6841 19.2986 65.6438 19.2821 64.8749C19.2494 63.3231 19.235 61.7698 19.2955 60.2181C19.3394 59.0981 19.5751 57.8856 19.4639 56.7627C19.1907 54.0054 17.5979 56.8811 17.1469 57.8988C16.0072 60.468 15.4668 63.2286 14.4399 65.841C14.2692 66.2755 13.8609 67.741 13.25 67.7589C12.5703 67.7786 12.5993 66.2589 12.5673 65.8143C12.382 63.2372 11.6606 60.6697 11.9308 58.073C12.2038 55.4509 13.1662 52.7659 14.5043 50.5024C17.3331 45.7169 22.349 43.0219 27.1514 40.5707C32.6473 37.766 38.4376 35.5726 44.3442 33.8044C51.4479 31.6777 58.7343 29.9809 66.0563 28.8067C69.7814 28.2095 73.561 27.7997 77.3198 27.4825C78.6408 27.371 79.9615 27.3144 81.2673 27.0837C81.7602 26.9964 83.5403 26.573 83.3895 27.5773ZM87.3152 19.3931C85.4525 19.3788 83.5641 18.4463 81.7555 18.0449C79.6022 17.5665 77.5026 16.8901 75.3535 16.3923C71.1451 15.4175 66.9341 14.4652 62.7298 13.4705C60.9046 13.0386 59.0698 12.6588 57.2522 12.1972C55.3076 11.7033 53.2071 11.1536 51.2016 11.6218C48.1618 12.3315 46.8311 15.6243 45.679 18.1924C44.8651 20.0062 44.2181 22.0322 42.9686 23.6021C42.5237 24.1619 41.8933 24.8279 41.1054 24.6321C39.6418 24.2685 39.9054 22.3283 40.1092 21.2567C40.4046 19.7016 40.8126 18.1665 41.1442 16.6191C41.2779 15.9946 42.3018 11.9094 40.578 12.5174C39.2992 12.9685 38.5782 16.0594 38.0796 17.1596C37.7091 17.9773 37.3174 18.7892 36.9036 19.5859C36.3513 20.6485 34.7674 24.203 33.0828 23.7151C30.672 23.0169 33.0935 16.6882 33.5269 15.3531C33.7648 14.6202 36.3128 9.07395 34.2285 9.49798C33.3409 9.67889 32.4535 11.3086 31.9918 11.9826C31.1732 13.178 30.3569 14.3823 29.5847 15.6082C28.7904 16.8692 28.3724 18.3119 27.5847 19.5544C27.1703 20.2083 26.3319 21.0753 25.5363 20.4515C24.2959 19.4798 25.0915 16.1793 25.3308 14.9303C25.776 12.6082 26.8291 10.2371 28.2526 8.35524C30.3915 5.52764 34.3579 4.665 37.6898 4.16114C41.9906 3.51064 46.3368 3.77463 50.6378 4.26616C55.4748 4.81912 60.2375 5.40469 64.9975 6.45535C69.7946 7.51422 74.5945 8.56525 79.3126 9.94026C81.5353 10.5881 83.791 11.1668 85.9803 11.9207C88.3078 12.722 90.5759 13.7094 92.9719 14.2979C92.0933 16.3954 91.2143 18.4929 90.3357 20.5906C89.5387 19.7771 88.4393 19.4015 87.3152 19.3931ZM128.682 25.8553C129.43 25.4612 130.252 25.2826 130.537 24.3903C130.789 23.6018 130.394 22.6978 130.21 21.9343C129.697 19.7966 129.587 17.5888 130.104 15.442C130.556 16.1551 132.245 18.8974 133.323 17.2699C133.974 16.2883 132.294 14.8355 131.808 14.1307C132.909 13.4751 134.494 11.6941 135.733 12.8024C136.534 13.5189 136.867 14.2019 137.955 14.5612C139.277 14.9974 140.528 14.9217 141.886 14.8281C142.837 14.7626 143.067 14.6395 143.427 15.3764C143.709 15.9556 143.848 16.6692 144.009 17.2889C144.325 18.5108 145.063 20.9201 144.127 22.0455C143.306 23.0313 140.196 22.1267 139.742 23.4087C139.495 24.1079 140.623 24.1506 141.049 24.5051C141.577 24.9439 142.008 25.6359 142.289 26.2524C142.497 26.7084 142.812 27.4613 142.439 27.9183C141.923 28.5506 140.994 28.0504 140.593 27.5788C140.062 26.9523 139.899 26.1045 139.458 25.4243C138.649 24.1762 138.584 25.158 138.344 26.0414C138.096 26.9592 137.542 26.8871 136.692 26.9922C135.199 27.1768 133.688 27.4466 132.232 27.8232C131.485 28.0163 130.761 28.2657 130.048 28.5593C129.589 28.7481 128.789 29.3296 128.294 29.3274C127.377 29.3235 126.765 27.7797 126.302 27.1324C127.094 26.7058 127.885 26.275 128.682 25.8553ZM176.47 120.548C174.222 117.763 172.285 114.745 170.068 111.936C167.882 109.166 165.34 106.734 162.878 104.217C161.715 103.029 160.604 101.729 159.317 100.672C158.357 99.8839 157.609 99.8603 156.434 100.185C153.096 101.106 149.695 102.225 146.528 103.628C143.579 104.935 140.885 106.63 137.697 107.334C134.444 108.054 131.07 108.248 127.751 108.006C124.347 107.757 121.144 106.998 117.919 105.905C114.866 104.871 111.68 103.959 109.085 101.962C106.366 99.8687 104.286 96.8862 102.359 94.0816C101.384 92.6618 100.417 91.1716 99.7697 89.5696C99.2081 88.1794 98.8525 86.5433 97.8238 85.4012C97.5615 85.761 97.2373 86.068 97.1001 86.4931C97.0377 86.6864 97.3876 86.6857 97.3494 86.8395C97.2771 87.1291 96.8856 87.4196 96.6583 87.5742C95.8414 88.1302 95.8437 87.6775 96.0391 88.7442C96.1528 89.366 95.8974 90.7607 94.8938 90.2881C95.259 90.7393 94.659 91.2924 94.4601 91.6564C94.3297 91.5018 94.1653 91.4462 93.9671 91.489C94.3252 92.2309 94.1066 92.2471 93.7394 92.8261C93.6722 92.9319 93.4317 93.4875 93.4657 93.4408C93.0916 93.9565 92.6666 94.0811 92.443 94.7271C92.2593 95.2577 92.2951 95.8448 92.0914 96.3743C91.8601 96.0439 91.6289 95.7135 91.3977 95.3834C91.4419 95.641 91.5324 96.0228 91.641 96.2576C91.7093 96.4044 92.0066 96.7492 92.0013 96.8286C91.9801 97.1253 91.6106 97.0482 91.5011 97.3027C91.2953 97.7801 91.5808 97.8554 91.4654 98.3226C91.3331 98.8588 91.0039 98.6384 90.8386 99.0946C90.8073 99.1812 91.0355 99.5275 90.9955 99.7148C90.9394 99.9795 90.6964 100.124 90.6077 100.359C90.3821 100.956 90.4539 101.397 90.1446 101.968C90.0249 102.19 89.8533 102.336 89.7673 102.589C89.692 102.811 89.8392 103.289 89.6975 103.486C89.0128 104.44 89.1329 102.781 89.1901 102.37C89.6702 98.9172 91.0932 95.3685 92.395 92.1549C93.042 90.5583 93.6729 88.9112 94.4767 87.3848C94.8001 86.7701 95.1723 86.1363 95.6982 85.6705C96.3635 85.0812 97.2978 84.8558 97.9022 84.1954C97.8069 84.2995 98.5554 83.613 98.4338 83.8406C98.5426 83.6372 98.3626 83.3566 98.4312 83.1591C98.5166 82.9139 98.6714 82.8645 98.8464 82.6514C99.1609 82.2689 99.5301 82.0817 99.0535 81.5807C99.7749 81.433 100.122 81.205 100.278 80.4374C100.391 79.8758 100.179 79.9093 100.555 79.5396C100.931 79.1682 101.115 79.4656 101.359 78.8161C101.65 78.0389 101.852 76.9789 102.033 76.1637C102.19 75.4519 101.851 74.3963 102.461 73.9015C103.233 73.275 103.911 73.556 103.795 72.2699C103.681 71.0162 104.082 70.264 104.491 69.0857C105.308 66.7334 105.648 64.2416 106.369 61.8596C107.909 56.7761 110.559 52.2125 113.402 47.761C116.029 43.6476 119.666 40.165 123.179 36.8111C124.14 35.8925 125.092 34.9603 125.958 33.9503C126.704 33.0807 127.057 31.8862 127.775 31.0608C128.21 30.5596 129.01 30.3547 129.611 30.0947C130.615 29.6609 131.811 29.0933 132.933 29.2017C132.463 30.7007 132.29 32.4583 133.591 33.6082C135.169 35.0031 136.641 33.6024 138.119 32.8442C140.814 31.462 144.615 32.8286 146.979 30.7309C147.542 30.2314 147.709 29.4218 148.294 28.9561C148.722 28.6147 149.326 28.5357 149.807 28.2837C151.267 27.5181 151.993 26.0863 151.454 24.4836C150.961 23.0186 150.168 22.5007 151.962 21.7901C153.418 21.2136 153.982 20.3195 153.353 18.7022C152.752 17.1603 151.611 16.9661 150.544 15.9466C149.511 14.9591 150.733 13.8476 151.53 13.1308C152.557 12.2061 152.764 11.3616 151.605 10.3652C150.391 9.32209 148.635 9.33053 147.194 9.8146C145.564 10.3617 144.481 11.2967 143.772 12.8281C143.049 14.3871 141.324 13.922 139.929 13.4626C138.594 13.0234 138.259 12.1153 137.394 11.1297C136.431 10.0333 134.421 10.9267 133.258 11.4027C130.394 12.5742 127.537 14.4491 127.371 17.8465C127.272 19.8723 128.103 21.6085 128.519 23.5179C128.899 25.2641 126.107 25.0834 125.596 26.7588C120.476 23.9451 114.738 23.0191 108.97 22.7431C102.838 22.4495 96.6178 22.1939 90.5205 23.0667C91.9707 20.629 92.7582 17.9434 94.0259 15.4356C94.3909 14.7136 94.5422 14.7781 95.3191 15.0101C96.8114 15.4556 98.2918 15.9512 99.7809 16.4093C105.221 18.083 110.548 20.0804 115.799 22.2589C116.31 22.4708 117.447 23.0544 117.907 22.4461C118.437 21.7448 117.249 20.8513 116.769 20.4868C114.666 18.8928 112.044 17.9044 109.678 16.7722C104.506 14.2976 98.7548 13.0716 93.3469 11.2093C81.672 7.1882 69.5774 4.08396 57.4126 1.96858C54.4439 1.45235 51.4373 1.3367 48.4538 0.941349C45.8111 0.591174 43.1586 0.556951 40.5064 0.834774C35.6078 1.34825 29.9195 2.53215 27.0883 6.96478C24.5324 10.967 22.7974 15.4844 23.3588 20.2878C23.5275 21.7306 24.1107 23.4451 25.8931 23.1017C27.1295 22.8635 27.8002 21.8266 28.3882 20.8136C29.2769 19.2832 30.1548 17.7527 31.1152 16.2648C31.4276 18.523 30.1302 20.7186 30.2929 23.0166C30.4037 24.576 31.2259 27.0499 33.2546 26.6405C36.0351 26.0795 37.2431 21.7681 38.6078 19.7119C38.6504 21.3127 38.0651 22.8805 38.2117 24.4864C38.3564 26.0728 39.5705 27.5871 41.3119 27.3972C42.9544 27.2182 44.0471 25.4785 44.764 24.1671C45.7616 22.3421 46.4883 20.3801 47.4635 18.5426C48.3775 16.8202 49.4603 14.7696 51.5829 14.4764C53.4773 14.2144 55.6325 14.9226 57.4949 15.2299C62.6609 16.0823 67.7141 17.4752 72.819 18.6165C78.2925 19.8401 83.9027 20.6188 89.196 22.538C87.2851 25.0559 82.3966 24.4292 79.6047 24.6592C75.3856 25.0068 71.114 25.2513 66.9157 25.7957C62.7693 26.3333 58.7021 27.3391 54.5852 28.0511C50.49 28.7594 46.4018 29.4691 42.4303 30.7239C35.0566 33.0538 27.5504 36.0309 21.0207 40.1949C17.9826 42.1325 15.2759 44.3589 13.3695 47.4623C11.4509 50.5851 10.497 54.1352 10.0978 57.7555C9.84942 60.0098 10.1812 61.9692 10.5843 64.1732C10.8763 65.769 10.9374 68.4341 12.1948 69.6188C14.5947 71.8801 16.7565 62.8933 17.223 61.8111C17.5188 63.6011 16.8329 73.6488 20.7519 72.8918C22.501 72.5543 22.9337 70.1675 23.2453 68.7307C23.8137 66.1115 24.3279 63.4386 25.2695 60.9221C25.7953 64.3407 25.9814 67.8966 27.178 71.1725C27.9728 73.3482 30.277 77.2225 31.9829 73.5457C33.2623 70.7882 32.8878 67.5947 33.082 64.649C33.2971 61.3846 34.2842 58.2481 34.6666 55.0184C34.8148 53.7672 34.7203 52.353 35.9903 51.6888C37.0805 51.1188 38.6644 50.9523 39.8498 50.643C43.361 49.7268 46.8939 48.8894 50.3895 47.9138C53.8867 46.9374 57.3384 45.787 60.7914 44.6655C64.0938 43.5929 67.4577 43.0063 70.7974 42.0958C72.6963 41.578 74.5727 41.0347 76.4965 40.6076C77.3918 40.4091 78.2973 40.2577 79.1907 40.0514C79.853 39.8988 80.7317 39.2973 81.4097 39.3187C82.1076 39.341 82.3606 39.9361 83.1605 39.995C84.0215 40.0582 84.9007 39.8817 85.7587 39.8293C87.849 39.7017 90.0723 39.4773 92.1508 39.7992C90.8758 41.2646 89.169 42.2648 87.6679 43.4718C85.9367 44.8639 84.2588 46.37 82.7729 48.0226C79.783 51.3477 76.9512 54.8676 74.3151 58.4794C71.7147 62.0424 69.6048 65.9529 67.7611 69.953C66.8425 71.9463 65.949 73.9838 65.3031 76.0839C65.0378 76.9466 64.8186 77.8133 64.3517 78.5944C63.9234 79.3108 63.326 79.9248 63.8054 80.8054C64.1481 80.5983 64.4571 80.339 64.7679 80.0887C64.3744 82.5812 63.5714 84.9858 63.1391 87.4701C62.7131 89.9176 62.6895 92.4412 62.676 94.9196C62.6479 100.11 62.9547 105.188 63.9281 110.294C64.9125 115.458 66.2005 120.587 67.8477 125.58C69.4333 130.386 71.0211 135.426 73.2682 139.968C75.6681 144.819 78.5335 149.925 82.0525 154.054C79.6974 154.976 76.7222 154.751 74.2382 155.098C71.6418 155.462 69.3893 156.188 67.1596 157.587C64.9037 159.003 63.6623 160.851 63.3124 163.491C63.0638 165.37 62.3716 167.965 64.8332 168.498C66.6037 168.882 68.5984 168.328 70.3803 168.212C73.4972 168.008 76.6171 167.899 79.7394 167.811C82.8533 167.724 85.9677 167.653 89.082 167.605C90.5468 167.583 92.0121 167.583 93.4765 167.553C94.1328 167.54 94.5307 167.536 95.1159 167.734C95.5786 167.892 95.5397 168.203 96.0636 167.826C96.9084 167.218 96.767 165.257 96.7571 164.395C96.7423 163.066 96.6373 161.72 96.3985 160.412C96.2567 159.635 94.4673 154.612 95.9225 154.424C94.2647 152.545 93.6322 149.887 92.9107 147.552C92.0067 144.627 91.2186 141.712 90.6111 138.708C89.3134 132.292 88.7965 125.818 88.8985 119.275C95.3137 123.369 102.133 125.638 109.759 125.999C117.34 126.357 125.683 125.864 132.925 123.452C136.279 122.336 139.29 120.848 142.182 118.825C143.219 118.1 144.343 116.438 145.688 116.488C147.293 116.548 149.081 117.183 150.672 117.468C153.713 118.013 157.688 118.355 160.241 120.281C161.627 121.328 162.609 122.777 163.842 123.977C164.78 124.89 166.031 125.397 166.962 126.31C167.967 127.295 167.542 128.554 169.231 128.659C170.675 128.748 172.268 128.192 173.525 127.529C176.032 126.206 178.725 123.342 176.47 120.548Z" fill="black"/>
<path fill-rule="evenodd" clip-rule="evenodd" d="M153.584 55.4251C157.182 58.0661 161.327 59.8966 165.093 62.2833C166.036 62.8806 168.982 64.1364 168.936 65.2165C168.909 65.8481 168.006 66.6264 167.609 67.0582C166.929 67.7979 166.289 68.546 165.659 69.3299C162.78 72.9196 160.064 76.5461 156.95 79.9496C156.481 80.4615 155.055 82.9186 154.626 81.6805C154.432 81.1192 154.609 80.4945 154.088 79.9659C153.82 79.6936 152.769 79.5295 153.085 78.9593C153.288 79.0544 153.491 79.1497 153.694 79.2446C153.542 78.7826 153.562 78.2795 153.331 77.8414C153.187 77.5693 152.9 77.4371 152.804 77.1317C152.672 76.7097 152.915 76.2255 152.882 75.7921C152.85 75.36 152.633 74.9486 152.505 74.5393C151.751 72.1135 151.505 69.676 151.139 67.1796C150.776 64.7093 150.189 62.3128 149.982 59.8175C149.764 57.182 149.487 54.5508 149.104 51.9338C149.859 52.0516 150.427 52.8824 150.955 53.3552C151.784 54.0984 152.687 54.7667 153.584 55.4251ZM150.335 80.8575C150.163 80.7185 150.03 80.5489 149.935 80.3488C151.732 79.4933 150.633 80.9835 150.335 80.8575ZM149.28 78.9567C148.499 79.1588 147.94 79.1935 147.346 78.8643C147.289 78.8332 147.358 78.6005 147.257 78.5509C147.168 78.5079 147.03 78.5573 146.954 78.517C146.695 78.3802 146.234 78.6639 146.197 78.1551C147.194 77.8669 148.178 77.3219 149.227 77.2438C150.684 77.1355 150.594 78.6161 149.28 78.9567ZM145.92 75.9743C144.855 76.2058 143.973 76.7714 142.848 76.6026C141.793 76.4445 140.882 75.8816 140.058 75.2365C142.154 74.6781 144.345 74.6056 146.439 74.0665C147.121 73.891 148.021 73.4142 148.75 73.6234C149.559 73.8559 149.599 74.6182 149.832 75.315C148.527 75.5287 147.213 75.6933 145.92 75.9743ZM139.333 72.9305C138.31 73.1581 137.26 73.6741 136.423 72.7422C136.287 72.5918 136.165 72.7379 136.188 72.2815C136.213 71.8003 136.655 71.4969 137.033 71.3332C137.923 70.9484 139.158 71.2254 140.098 71.1814C141.597 71.1116 143.125 70.8241 144.61 70.6076C145.638 70.4578 146.703 70.1062 147.75 70.1952C148.559 70.2639 149.524 70.9688 148.337 71.4535C147.256 71.8952 145.647 71.7998 144.48 71.9801C142.755 72.2468 141.036 72.5513 139.333 72.9305ZM138.412 68.1215C138.477 68.1898 138.542 68.2581 138.607 68.3264C138.596 68.3237 139.003 68.0048 139.109 67.9971C139.626 67.9602 140.145 68.0038 140.663 67.9827C141.856 67.934 143.061 67.7451 144.235 67.5346C145.192 67.3632 146.168 67.0572 147.149 67.153C147.997 67.2358 148.084 67.4113 148.127 68.2323C145.957 68.1985 143.724 68.118 141.585 68.544C140.192 68.8211 138.648 69.6872 137.978 68.0721C138.123 68.0886 138.267 68.1051 138.412 68.1215ZM139.822 64.6704C140.354 65.0885 141.831 64.4301 142.477 64.3721C143.178 64.3089 143.838 64.2422 144.519 64.0784C145.123 63.9329 147.126 63.1908 147.575 63.9374C148.265 65.0813 145.397 65.2445 144.942 65.2936C143.034 65.4992 141.055 65.677 139.194 66.1477C139.403 65.6554 139.613 65.163 139.822 64.6704ZM142.495 60.8632C142.626 61.3891 146.963 59.5265 147.02 60.9302C147.063 62.0071 142.733 62.4759 141.957 62.3694C142.147 61.8767 142.638 61.4405 142.495 60.8632ZM143.992 57.5942C144.1 56.5395 144.242 56.5478 145.091 56.4615C145.738 56.3956 146.632 56.0307 146.446 57.1795C146.286 58.1632 143.884 58.6587 143.992 57.5942ZM145.588 53.9841C145.801 53.4202 146.248 54.1906 146.253 54.4791C146.267 55.2468 145.688 55.0718 145.128 55.063C145.289 54.7071 145.443 54.3469 145.588 53.9841ZM152.744 49.8379C152.632 49.6986 151.991 49.636 151.81 49.5664C151.364 49.3949 151.433 49.0454 150.853 49.3822C150.825 49.3528 150.884 49.0937 150.852 49.0813C150.837 49.0749 150.437 48.9169 150.307 48.8311C149.995 48.6241 149.714 48.4219 149.428 48.1638C149.124 47.8897 148.821 47.494 148.473 47.274C148.326 47.1813 148.206 47.0513 148.028 47.0208C147.565 46.942 147.693 47.2674 147.286 47.3253C147.035 47.361 146.858 47.0663 146.529 47.1871C146.244 47.2913 146.074 47.685 145.945 47.9189C145.474 48.77 145.106 49.6882 144.645 50.5486C142.284 54.9482 139.614 59.1746 137.325 63.6167C136.222 65.7566 135.073 67.9108 134.285 70.191C133.717 71.8355 132.454 74.2312 133.482 75.8993C134.23 77.1122 135.756 77.6547 136.971 78.254C138.8 79.1559 140.48 80.3236 142.33 81.1992C144.535 82.2433 146.675 83.3329 148.822 84.4939C149.738 84.9891 150.56 85.6945 151.473 86.1642C152.031 86.4515 152.908 85.9898 153.081 86.6311C153.8 85.7877 154.933 86.3751 155.758 85.7862C156.244 85.4398 156.606 84.7482 157.013 84.3186C157.623 83.6746 158.285 83.0786 158.907 82.4462C161.379 79.9343 163.666 77.3137 165.922 74.6095C168.076 72.0272 170.583 69.5948 172.413 66.7598C173.14 65.6344 173.287 64.4447 172.839 63.1819C172.511 62.2607 171.71 60.865 170.525 61.4531C170.982 60.7199 169.275 59.9026 168.756 59.7498C168.748 59.7476 168.636 60.3146 168.491 60.2982C168.543 60.304 168.073 59.0316 167.861 58.866C167.231 58.3735 166.464 57.7984 165.775 57.3903C165.142 57.0161 164.472 56.8252 163.86 56.4079C163.118 55.9022 162.439 55.3056 161.695 54.8033C160.976 54.3183 160.175 53.7457 159.378 53.4075C158.686 53.1142 158.062 53.0491 157.443 52.5763C156.677 51.9913 156.008 51.5922 155.12 51.1835C154.353 50.8301 153.286 50.5151 152.744 49.8379Z" fill="black"/>
<path fill-rule="evenodd" clip-rule="evenodd" d="M46.1656 116.792C46.3129 116.46 46.4598 116.128 46.6071 115.797C46.7737 116.382 46.8184 116.672 46.1656 116.792ZM46.3306 118.336C46.0219 118.387 46.1583 117.423 46.1609 117.254C46.688 117.564 46.242 117.918 46.3306 118.336ZM45.8941 115.543C46.1589 115.392 46.4238 115.241 46.6887 115.09C46.3126 115.761 46.4626 115.34 46.6064 115.795C46.3295 115.87 46.0629 115.773 45.8941 115.543ZM44.2561 120.811C43.2166 124.366 40.0477 127.132 36.7243 128.539C34.8146 129.347 32.9467 129.528 30.8999 129.403C30.1105 129.354 29.185 129.083 28.424 129.119C27.8381 129.147 27.8641 129.172 27.3715 129.66C27.1632 129.262 27.3228 128.987 26.8962 128.751C26.3638 128.455 26.1357 128.786 25.8632 129.179C25.5203 128.812 25.3806 128.622 24.9324 128.4C24.9465 128.407 24.5003 128.383 24.5185 128.389C24.4381 128.363 23.9574 128.043 23.8062 127.984C23.186 127.74 22.466 127.633 21.8956 127.288C21.3965 126.987 20.9946 126.157 20.4085 126.781C20.4245 125.724 19.0075 125.263 18.3488 124.699C17.3195 123.818 16.5105 122.524 16.0099 121.277C15.4761 119.947 15.3108 118.678 15.0726 117.312C14.9062 116.358 13.7407 114.964 14.4684 114.015C14.632 114.42 14.5458 114.831 14.8222 115.201C15.0836 114.716 15.2318 114.171 15.3548 113.637C15.4153 113.376 15.7537 112.611 15.7202 112.382C15.6521 111.913 15.0737 111.879 15.4035 111.311C16.0578 112.045 16.6147 110.782 16.1198 110.267C15.8672 110.543 15.7711 110.86 15.6512 111.205C15.0174 109.874 16.8219 110.327 16.4442 109.129C17.1072 109.012 17.4898 108.851 17.7513 108.202C18.0421 107.48 17.8389 107.318 18.481 106.848C18.7019 106.686 19.3229 106.458 19.4401 106.189C19.6668 105.667 19.1131 105.503 19.6079 105.019C19.7679 105.31 20.4002 105.891 20.7597 105.353C20.8317 105.246 20.5377 105.164 20.7563 104.918C21.0801 104.553 21.4417 104.196 21.9783 104.282C21.569 103.211 24.2919 103.169 24.9929 102.929C25.6954 102.688 26.2907 102.532 27.0323 102.485C27.7731 102.438 27.8133 102.222 28.4467 101.786C28.4898 102.425 28.6453 102.287 29.0967 102.406C29.2085 102.221 29.3205 102.202 29.4325 102.349C29.5445 102.459 29.6828 102.511 29.8469 102.508C30.0954 102.525 30.3782 102.497 30.6388 102.506C31.2506 102.528 31.8827 102.486 32.4828 102.509C32.6381 102.485 32.7836 102.434 32.9204 102.354C32.9754 102.461 33.0306 102.569 33.0853 102.677C33.4027 102.722 33.4211 103.12 33.8191 102.691C33.9262 103.247 34.2632 102.963 34.6122 103.119C34.9304 103.262 34.978 103.482 35.2713 103.639C35.4633 103.8 35.6714 103.824 35.8961 103.712C36.1056 103.872 36.3184 104.028 36.5344 104.18C36.9332 104.413 37.4052 104.56 37.8263 104.746C38.1065 104.866 38.3849 104.992 38.6609 105.122C38.664 105.457 38.8127 105.578 39.1067 105.484C39.3675 105.709 39.442 105.702 39.6925 106.082C40.26 106.944 40.7649 107.615 41.4866 108.389C44.6234 111.754 45.5299 116.456 44.2561 120.811ZM45.4543 106.73C44.0448 104.78 42.0416 102.541 40.2297 101.295C39.3113 100.663 38.0258 99.5348 36.896 99.1907C36.6282 99.109 36.3498 99.0996 36.0865 99.0143C35.8832 98.9484 35.7753 98.737 35.5428 98.6955C35.3803 98.6666 35.3566 99.0311 35.184 98.9949C34.8231 98.9187 34.5992 98.5559 34.3471 98.3273C33.7833 99.2648 33.5101 97.6691 32.6873 98.7262C31.7512 97.2068 29.492 97.5006 27.9587 97.5526C27.5039 97.5679 27.288 97.7262 26.8832 97.8398C26.5066 97.9454 26.47 97.9161 26.0606 97.9067C25.041 97.8829 24.1339 97.997 23.1844 98.4301C21.5892 99.1575 20.1175 100.307 18.5994 101.19C16.9027 102.177 15.3674 103.443 14.0584 104.904C9.32616 110.189 7.96126 117.99 11.5713 124.259C17.3053 134.215 32.4762 135.505 41.1864 128.946C47.9157 123.879 50.6028 113.852 45.4543 106.73Z" fill="black"/>
<path fill-rule="evenodd" clip-rule="evenodd" d="M118.761 80.1067C118.59 80.4984 117.049 80.3416 117.022 79.8763C116.983 79.181 119.059 79.4261 118.761 80.1067ZM120.404 79.8744C121.277 79.9591 122.705 80.5754 123.553 80.2296C124.848 79.7019 123.51 78.8402 122.824 78.5781C122.126 78.3115 121.078 78.431 120.729 77.6913C120.466 77.135 121.161 75.6042 120.324 75.8389C119.447 76.0852 119.666 78.2971 118.307 77.5315C117.659 77.1662 117.959 75.0071 116.847 76.0953C116.542 76.3929 116.507 76.9476 116.107 77.1669C115.698 77.3908 115.194 77.143 114.766 77.1564C113.632 77.1918 113.255 78.2454 114.396 78.6834C114.818 78.8456 116.416 79.0604 115.436 79.7393C114.818 80.1669 113.475 79.2284 112.938 79.9812C112.201 81.0153 114.132 81.069 114.646 81.3898C115.517 81.933 114.772 83.1586 114.828 84.0405C114.914 85.3881 115.701 85.119 116.002 83.9845C116.258 83.0218 115.981 81.6262 117.432 82.0329C119.795 82.6953 116.056 85.6496 117.782 86.4473C118.883 86.956 119.081 84.3021 119.174 83.846C119.519 82.1627 120.461 82.5714 121.897 82.6456C123.574 82.7321 123.999 81.4969 122.227 81.1136C121.662 80.9913 120.879 81.1226 120.393 80.7537C120.105 80.5357 119.715 79.8078 120.404 79.8744Z" fill="black"/>
<path fill-rule="evenodd" clip-rule="evenodd" d="M57.5762 134.066C56.2254 133.558 53.9515 133.628 53.588 135.377C53.436 136.109 53.6978 136.89 54.1966 137.432C54.7751 138.06 55.7109 138.132 55.6777 137.053C55.6545 136.307 54.9551 135.649 56.2048 135.518C56.9825 135.437 58.1216 136.035 58.1468 136.893C58.204 138.827 54.8561 138.927 53.6284 138.573C51.1917 137.872 51.8965 135.319 53.5951 134.176C54.0339 133.88 55.2867 133.434 55.3533 132.807C55.4419 131.976 54.4097 132.13 53.9034 132.232C50.1815 132.981 49.2762 139.183 53.1338 140.415C54.8856 140.974 57.3729 140.463 58.4585 138.886C59.4763 137.407 59.5304 134.8 57.5762 134.066Z" fill="black"/>
<path fill-rule="evenodd" clip-rule="evenodd" d="M9.07988 89.3107C7.91166 89.8508 6.74343 90.3909 5.57546 90.9311C5.20494 90.1049 4.59232 87.8542 3.62458 87.553C2.05801 87.0652 3.0221 89.5233 3.285 90.0859C3.50098 90.5481 4.00748 91.2669 3.87331 91.8117C3.69328 92.5457 2.65 92.7905 2.10011 93.162C0.739353 94.0817 0.719227 96.0575 2.68174 95.2508C3.7923 94.794 5.17868 93.5012 6.00096 95.0064C6.38063 95.7009 7.24569 99.5615 8.25098 97.0613C8.87304 95.5133 6.02101 93.8505 7.45998 92.5552C7.92323 92.1384 8.45837 92.1109 8.91832 91.8743C10.0291 91.3029 9.42495 90.2055 9.07988 89.3107Z" fill="black"/>
<path fill-rule="evenodd" clip-rule="evenodd" d="M179.939 36.2321C179.252 35.9685 178.405 35.4614 177.634 35.6177C176.814 35.7837 176.473 36.5965 175.871 37.0789C174.236 38.3907 173.327 36.3834 172.457 35.2776C171.636 34.2335 170.618 33.9673 169.426 34.5824C168.951 34.8276 166.949 35.954 167.284 36.7008C167.524 37.2383 168.512 36.7746 168.848 36.6632C169.578 36.422 170.255 36.2114 170.991 36.5913C172.373 37.3034 172.705 39.2024 174.385 39.5239C176.122 39.8564 176.205 38.1997 177.457 37.5952C178.297 37.1901 178.866 37.9393 179.672 37.8044C180.441 37.6759 180.812 36.5666 179.939 36.2321Z" fill="black"/>
<path fill-rule="evenodd" clip-rule="evenodd" d="M165.773 42.6931C166.387 42.8365 166.807 41.6479 167.198 41.3509C167.845 40.8585 168.956 40.7745 169.599 41.2903C170.856 42.297 170.384 44.4209 172.187 45.0045C173.798 45.5262 174.594 43.4061 175.964 42.8966C176.761 42.6003 177.634 42.4118 177.342 41.2995C177.141 40.5303 176.515 40.3238 175.826 40.6073C174.643 41.0941 174.212 43.1458 172.818 43.1609C171.376 43.1765 171.252 41.0959 170.647 40.1811C169.725 38.7868 167.791 38.4233 166.668 39.7253C166.329 40.1181 164.603 42.4207 165.773 42.6931Z" fill="black"/>
<path fill-rule="evenodd" clip-rule="evenodd" d="M137.645 18.6902C138.493 19.2898 140.201 19.2962 141.001 18.5813C141.816 17.8539 140.746 17.7235 140.091 17.7359C139.587 17.7456 138.641 17.9804 138.942 17.1156C139.208 16.3482 140.601 16.7627 140.731 15.9178C139.681 15.7125 138.52 15.7625 137.728 16.578C137.156 17.1675 136.851 18.1287 137.645 18.6902Z" fill="black"/>
</svg>
